<svg width="15" height="15" viewBox="0 0 15 15" fill="none" xmlns="http://www.w3.org/2000/svg">
<g id="ic:outline-watch-later">
<path id="Vector" d="M7.5 1.25C4.0625 1.25 1.25 4.0625 1.25 7.5C1.25 10.9375 4.0625 13.75 7.5 13.75C10.9375 13.75 13.75 10.9375 13.75 7.5C13.75 4.0625 10.9375 1.25 7.5 1.25ZM7.5 12.5C4.74375 12.5 2.5 10.2563 2.5 7.5C2.5 4.74375 4.74375 2.5 7.5 2.5C10.2563 2.5 12.5 4.74375 12.5 7.5C12.5 10.2563 10.2563 12.5 7.5 12.5ZM7.8125 4.375H6.875V8.125L10.125 10.125L10.625 9.3125L7.8125 7.625V4.375Z" fill="#F9A629"/>
</g>
</svg>
