<svg width="24" height="24" viewBox="0 0 24 24" fill="none" xmlns="http://www.w3.org/2000/svg">
<g id="solar:pen-2-outline">
<path id="Vector" fill-rule="evenodd" clip-rule="evenodd" d="M14.1003 2.391C14.8335 1.6725 15.8206 1.27239 16.8471 1.27762C17.8736 1.28285 18.8566 1.693 19.5824 2.41893C20.3082 3.14487 20.7182 4.12791 20.7232 5.15443C20.7283 6.18094 20.328 7.16797 19.6093 7.901L12.0153 15.495C11.5873 15.923 11.3253 16.185 11.0353 16.412C10.6919 16.6796 10.3204 16.9089 9.92734 17.096C9.59334 17.255 9.24234 17.372 8.66834 17.563L5.99634 18.454L5.35434 18.668C5.07269 18.7621 4.7704 18.7758 4.48137 18.7077C4.19234 18.6396 3.92802 18.4923 3.71804 18.2823C3.50807 18.0723 3.36075 17.808 3.29263 17.519C3.2245 17.2299 3.23825 16.9276 3.33234 16.646L4.43734 13.332C4.62834 12.758 4.74534 12.407 4.90434 12.073C5.09178 11.6802 5.32147 11.309 5.58934 10.966C5.81634 10.675 6.07734 10.413 6.50534 9.986L14.1003 2.391ZM5.96034 16.885L5.11634 16.039L5.84434 13.854C6.05634 13.218 6.14434 12.959 6.25834 12.719C6.39834 12.424 6.57134 12.146 6.77134 11.889C6.93534 11.679 7.12734 11.485 7.60134 11.01L13.4923 5.12C13.7984 5.88475 14.2575 6.57893 14.8413 7.16C15.4225 7.7435 16.1167 8.2022 16.8813 8.508L10.9903 14.398C10.5153 14.873 10.3223 15.065 10.1123 15.228C9.85489 15.4286 9.57663 15.6009 9.28234 15.742C9.04234 15.856 8.78234 15.944 8.14634 16.156L5.96034 16.885ZM18.0763 7.312C17.9223 7.27796 17.7703 7.23488 17.6213 7.183C16.9734 6.95646 16.3853 6.58582 15.9013 6.099C15.4147 5.61494 15.0441 5.02688 14.8173 4.379C14.7651 4.23001 14.7217 4.07808 14.6873 3.924L15.1603 3.452C15.6121 3.01483 16.2176 2.77271 16.8462 2.77787C17.4748 2.78302 18.0763 3.03503 18.5208 3.47956C18.9653 3.92408 19.2173 4.52551 19.2225 5.15414C19.2276 5.78277 18.9855 6.38825 18.5483 6.84L18.0763 7.312ZM3.25034 22C3.25034 21.8011 3.32936 21.6103 3.47001 21.4697C3.61066 21.329 3.80143 21.25 4.00034 21.25H20.0003V22.75H4.00034C3.80143 22.75 3.61066 22.671 3.47001 22.5303C3.32936 22.3897 3.25034 22.1989 3.25034 22Z" fill="#D9D9D9"/>
</g>
</svg>
